HIERARCHY
ROOT Hips
{
	OFFSET	0.00	0.00	0.00
	CHANNELS 6 Xposition Yposition Zposition Zrotation Xrotation Yrotation
	JOINT LeftUpLeg
	{
		OFFSET	 0.126116	-0.065224	 0.014019
		CHANNELS 3 Zrotation Xrotation Yrotation
		JOINT LeftLeg
		{
			OFFSET	 0.000000	 0.569914	 0.000000
			CHANNELS 3 Zrotation Xrotation Yrotation
			JOINT LeftFoot
			{
				OFFSET	 0.000000	 0.544423	 0.000000
				CHANNELS 3 Zrotation Xrotation Yrotation
				JOINT LeftToeBase
				{
					OFFSET	 0.000000	 0.207117	 0.000000
					CHANNELS 3 Zrotation Xrotation Yrotation
					End Site
					{
						OFFSET	 0.000000	 0.207117	 0.000000
					}
				}
			}
		}
	}
	JOINT RightUpLeg
	{
		OFFSET	-0.124023	-0.065224	 0.008373
		CHANNELS 3 Zrotation Xrotation Yrotation
		JOINT RightLeg
		{
			OFFSET	 0.000000	 0.570047	 0.000000
			CHANNELS 3 Zrotation Xrotation Yrotation
			JOINT RightFoot
			{
				OFFSET	 0.000000	 0.544354	 0.000000
				CHANNELS 3 Zrotation Xrotation Yrotation
				JOINT RightToeBase
				{
					OFFSET	 0.000000	 0.207540	 0.000000
					CHANNELS 3 Zrotation Xrotation Yrotation
					End Site
					{
						OFFSET	 0.000000	 0.207540	 0.000000
					}
				}
			}
		}
	}
	JOINT Spine
	{
		OFFSET	 0.000184	 0.117403	 0.007763
		CHANNELS 3 Zrotation Xrotation Yrotation
		JOINT Spine1
		{
			OFFSET	 0.000000	 0.137269	 0.000000
			CHANNELS 3 Zrotation Xrotation Yrotation
			JOINT Spine2
			{
				OFFSET	 0.000000	 0.156879	 0.000000
				CHANNELS 3 Zrotation Xrotation Yrotation
				JOINT LeftShoulder
				{
					OFFSET	 0.080501	 0.160143	 0.002496
					CHANNELS 3 Zrotation Xrotation Yrotation
					JOINT LeftArm
					{
						OFFSET	 0.000000	 0.164363	 0.000000
						CHANNELS 3 Zrotation Xrotation Yrotation
						JOINT LeftForeArm
						{
							OFFSET	 0.000000	 0.364576	 0.000000
							CHANNELS 3 Zrotation Xrotation Yrotation
							JOINT LeftHand
							{
								OFFSET	 0.000000	 0.360812	 0.000000
								CHANNELS 3 Zrotation Xrotation Yrotation
								JOINT LeftHandIndex1
								{
									OFFSET	 0.000000	 0.086006	 0.000000
									CHANNELS 3 Zrotation Xrotation Yrotation
									JOINT LeftHandIndex2
									{
										OFFSET	 0.000000	 0.047237	 0.000000
										CHANNELS 3 Zrotation Xrotation Yrotation
										JOINT LeftHandIndex3
										{
											OFFSET	-0.004284	 0.038165	 0.000551
											CHANNELS 3 Zrotation Xrotation Yrotation
											End Site
											{
												OFFSET	-0.004284	 0.038165	 0.000551
											}
										}
									}
								}
							}
						}
					}
				}
				JOINT Neck
				{
					OFFSET	 0.000000	 0.176489	 0.000000
					CHANNELS 3 Zrotation Xrotation Yrotation
					JOINT Head
					{
						OFFSET	 0.000000	 0.077941	 0.001747
						CHANNELS 3 Zrotation Xrotation Yrotation
						End Site
						{
							OFFSET	 0.000000	 0.077941	 0.001747
						}
					}
				}
				JOINT RightShoulder
				{
					OFFSET	-0.080363	 0.159706	-0.000306
					CHANNELS 3 Zrotation Xrotation Yrotation
					JOINT RightArm
					{
						OFFSET	 0.000000	 0.164196	 0.000000
						CHANNELS 3 Zrotation Xrotation Yrotation
						JOINT RightForeArm
						{
							OFFSET	 0.000000	 0.365611	 0.000000
							CHANNELS 3 Zrotation Xrotation Yrotation
							JOINT RightHand
							{
								OFFSET	 0.000000	 0.360648	 0.000000
								CHANNELS 3 Zrotation Xrotation Yrotation
								JOINT RightHandIndex1
								{
									OFFSET	 0.000000	 0.069977	 0.000000
									CHANNELS 3 Zrotation Xrotation Yrotation
									JOINT RightHandIndex2
									{
										OFFSET	 0.000000	 0.052305	 0.000000
										CHANNELS 3 Zrotation Xrotation Yrotation
										JOINT RightHandIndex3
										{
											OFFSET	 0.009002	 0.042196	 0.000782
											CHANNELS 3 Zrotation Xrotation Yrotation
											End Site
											{
												OFFSET	 0.009002	 0.042196	 0.000782
											}
										}
									}
								}
							}
						}
					}
				}
			}
		}
	}
}
MOTION
Frames:    6
Frame Time: 0.03333334
-0.001263	 1.269720	-0.008737	 0.097614	 3.207582	 178.788100	 179.515800	 3.418564	-4.116826	 3.196125	-15.770070	 2.901070	-4.327535	 70.247750	 6.577919	 1.331492	 28.938720	-2.729976	-179.591900	 4.060371	 7.592339	-5.060133	-16.224060	-6.455812	 1.417052	 70.485510	-1.380891	-1.305364	 28.580670	 2.603726	-0.795698	 2.997684	-10.203330	-2.033735	 4.379131	-5.942276	-1.587702	-4.360153	 13.305780	-113.447100	 5.124416	 92.999710	 6.652579	 53.288280	 38.071870	 14.824610	-0.758530	 0.014840	-24.508080	-17.833530	-52.926120	-6.580301	 5.266122	 0.000000	 0.000000	 0.000000	 0.000000	 0.000000	 0.000000	 0.000000	 3.833531	-0.652368	-0.251249	 3.249053	 0.655298	 4.979060	 114.205100	-4.424262	-88.485470	-60.844530	 2.827715	 41.397970	-93.958720	-2.247694	-2.350080	-18.161740	-29.422420	 1.592101	-0.359781	 10.582420	 0.744568	 11.977790	 9.317289	-2.096061	-8.359142	 3.150325	 0.104225
-0.001163	 1.270205	-0.008885	 0.133545	 3.208294	 178.743900	 179.560600	 3.429941	-4.166581	 3.205106	-15.812140	 2.883968	-4.378428	 70.191740	 6.626252	 1.331492	 28.938720	-2.729976	-179.550500	 4.031315	 7.569355	-5.042660	-16.171110	-6.482989	 1.330813	 70.386600	-1.288406	-1.305377	 28.580750	 2.600369	-0.775968	 2.779704	-10.062340	-2.048427	 5.042416	-5.888765	-1.519571	-5.268815	 13.145100	-113.447200	 5.117307	 92.998150	 5.442101	 53.128370	 39.145300	 15.618010	-0.798121	 0.025617	-24.724450	-18.895060	-52.935360	-6.580301	 5.266122	 0.000000	 0.000000	 0.000000	 0.000000	 0.000000	 0.000000	 0.000000	 3.845113	-0.678941	-0.254854	 3.297919	 0.569630	 4.919108	 114.203000	-4.410150	-88.495670	-60.357380	 2.935565	 40.135630	-94.956390	-2.244622	-2.389165	-20.971980	-30.239030	-0.603546	-0.359778	 10.582350	 0.744568	 11.977790	 9.317219	-2.096046	-8.359141	 3.150288	 0.104229
-0.000945	 1.270742	-0.009133	 0.179776	 3.210315	 178.678100	 179.623600	 3.438762	-4.239974	 3.215469	-15.860610	 2.857442	-4.463826	 70.133340	 6.705198	 1.331492	 28.938720	-2.729976	-179.491600	 3.990031	 7.534221	-5.019489	-16.100840	-6.525157	 1.197405	 70.277990	-1.147344	-1.305397	 28.580860	 2.595302	-0.759158	 2.538505	-9.834005	-2.064600	 5.766973	-5.789428	-1.447701	-6.268847	 12.865500	-113.447400	 5.106566	 92.995780	 4.154039	 52.972370	 40.311870	 16.495360	-0.841760	 0.038150	-24.983660	-20.179250	-52.749650	-6.580301	 5.266122	 0.000000	 0.000000	 0.000000	 0.000000	 0.000000	 0.000000	 0.000000	 3.862592	-0.719052	-0.260285	 3.368516	 0.487989	 4.815845	 114.200000	-4.388835	-88.511090	-59.819730	 2.907797	 38.049430	-96.824740	-2.237113	-2.462204	-24.563430	-31.188100	-4.203870	-0.359775	 10.582240	 0.744568	 11.977790	 9.317112	-2.096025	-8.359138	 3.150232	 0.104234
-0.000616	 1.271239	-0.009461	 0.227528	 3.213665	 178.601000	 179.694800	 3.441279	-4.325264	 3.224836	-15.904480	 2.825835	-4.570476	 70.081500	 6.801425	 1.331492	 28.938720	-2.729976	-179.426300	 3.942851	 7.506733	-4.994661	-16.025500	-6.575422	 1.074491	 70.179340	-1.022984	-1.305419	 28.580990	 2.589381	-0.749684	 2.315380	-9.555367	-2.085150	 6.423470	-5.659631	-1.383411	-7.184532	 12.509210	-113.447600	 5.094021	 92.993060	 3.018141	 52.858530	 41.365920	 17.309750	-0.882066	 0.050387	-25.248750	-21.470790	-52.391080	-6.580301	 5.266122	 0.000000	 0.000000	 0.000000	 0.000000	 0.000000	 0.000000	 0.000000	 3.883013	-0.765929	-0.266616	 3.448826	 0.424485	 4.685558	 114.196400	-4.363961	-88.529090	-59.513200	 2.672950	 35.375870	-99.373050	-2.222996	-2.561378	-28.103110	-31.943300	-8.838648	-0.359771	 10.582120	 0.744568	 11.977790	 9.316989	-2.096000	-8.359137	 3.150167	 0.104240
-0.000155	 1.271727	-0.009895	 0.278372	 3.218726	 178.511400	 179.774800	 3.437061	-4.407709	 3.233560	-15.945300	 2.788330	-4.659475	 70.032750	 6.870060	 1.331492	 28.938720	-2.729976	-179.347600	 3.886622	 7.458305	-4.967524	-15.943060	-6.635596	 0.881079	 70.085390	-0.825633	-1.305446	 28.581140	 2.582423	-0.747166	 2.096334	-9.216814	-2.114662	 7.052864	-5.494902	-1.321563	-8.072677	 12.062880	-113.447800	 5.079255	 92.989800	 1.963306	 52.786320	 42.372600	 18.110140	-0.921466	 0.063017	-25.529690	-22.839700	-51.852420	-6.580301	 5.266122	 0.000000	 0.000000	 0.000000	 0.000000	 0.000000	 0.000000	 0.000000	 3.907004	-0.821017	-0.274035	 3.541554	 0.373071	 4.524283	 114.192100	-4.334695	-88.550250	-59.661290	 2.119349	 31.985670	-102.577100	-2.199034	-2.685074	-31.543300	-32.299540	-14.721270	-0.359766	 10.581970	 0.744568	 11.977790	 9.316843	-2.095971	-8.359134	 3.150090	 0.104248
 0.000472	 1.272234	-0.010476	 0.334246	 3.225397	 178.403200	 179.872200	 3.424940	-4.526069	 3.241727	-15.983440	 2.742839	-4.820885	 69.982260	 7.010219	 1.331492	 28.938720	-2.729976	-179.253600	 3.818554	 7.399464	-4.936755	-15.849510	-6.709455	 0.642841	 69.991740	-0.585514	-1.305479	 28.581330	 2.574034	-0.753098	 1.871490	-8.792687	-2.155365	 7.680934	-5.279788	-1.260487	-8.974216	 11.492920	-113.448100	 5.061505	 92.985900	 0.946168	 52.764470	 43.376480	 18.927560	-0.961606	 0.076463	-25.821250	-24.363270	-51.076040	-6.580301	 5.266122	 0.000000	 0.000000	 0.000000	 0.000000	 0.000000	 0.000000	 0.000000	 3.935922	-0.887443	-0.282949	 3.651912	 0.331184	 4.321090	 114.187000	-4.299413	-88.575770	-60.660180	 1.060602	 27.675550	-106.311700	-2.162461	-2.827151	-34.767440	-31.889830	-22.060400	-0.359761	 10.581790	 0.744568	 11.977790	 9.316667	-2.095935	-8.359130	 3.149997	 0.104256
